<svg xmlns="http://www.w3.org/2000/svg" style="margin:auto;background:rgba(241, 242, 243, 0);display:block;" width="980" height="130" preserveAspectRatio="xMidYMid">
   <style type="text/css">
      text {
      text-anchor: middle; font-size: 99px; opacity: 0;
      }
     @keyframes blur-in-4576bc4c-bf56-4f3b-8c88-434be20b154e {
      0% {
        filter: blur(10px);
        opacity: 0;
      }
     100% {
      filter: blur(0);
      opacity: 1;
      }
    }
   </style>
   <g style="transform-origin: 490px 65px; transform: scale(1.59677);">
      <g transform="translate(490,65)">
         <g transform="translate(0,0)">
            <g class="path" style="filter: blur(10px); opacity: 0; transform-origin: -249.245px -5.0505px; animation: 1s linear 0s 1 normal forwards running blur-in-4576bc4c-bf56-4f3b-8c88-434be20b154e;">
               <path d="M18.13-17.41L22.19-17.41L22.19-17.41Q25.94-17.41 25.94-18.38L25.94-18.38L25.94-18.59L25.94-18.59Q25.94-19.10 23.92-27.17L23.92-27.17L23.92-27.17Q21.89-35.24 21.19-35.24L21.19-35.24L21.07-35.24L21.07-35.24Q21.01-35.24 19.92-32.88L19.92-32.88L19.92-32.88Q14.29-20.80 14.29-18.16L14.29-18.16L14.29-17.98L14.29-17.98Q14.29-17.53 15.44-17.53L15.44-17.53L15.92-17.47L18.13-17.41zM21.49-42.53L21.49-42.53L22.19-42.53L22.19-42.53Q24.76-42.53 26.79-37.84L26.79-37.84L26.79-37.84Q30.24-29.94 34.63-12.32L34.63-12.32L34.63-12.32Q35.21-10.08 36.34-7.84L36.34-7.84L36.34-7.84Q37.48-5.60 37.48-5.00L37.48-5.00L37.48-5.00Q37.48-3.27 36.33-1.97L36.33-1.97L36.33-1.97Q35.18-0.67 33.60-0.67L33.60-0.67L32.94-0.67L32.94-0.67Q30.30-0.67 29.64-2.33L29.64-2.33L29.64-2.33Q29.52-2.60 29.38-3.89L29.38-3.89L29.38-3.89Q29.24-5.18 29.00-6.30L29.00-6.30L29.00-6.30Q28.15-10.23 26.90-11.70L26.90-11.70L26.90-11.70Q25.64-13.17 19.83-13.17L19.83-13.17L19.83-13.17Q14.02-13.17 12.64-11.84L12.64-11.84L12.64-11.84Q11.26-10.50 9.78-6.39L9.78-6.39L9.78-6.39Q9.32-5.12 9.07-3.57L9.07-3.57L9.07-3.57Q8.81-2.03 8.54-1.57L8.54-1.57L8.54-1.57Q7.99-0.70 6.31-0.70L6.31-0.70L6.31-0.70Q4.63-0.70 3.63-1.85L3.63-1.85L3.63-1.85Q2.63-3.00 2.63-4.56L2.63-4.56L2.63-4.56Q2.63-6.12 4.21-8.29L4.21-8.29L4.21-8.29Q5.75-10.47 9.99-21.62L9.99-21.62L9.99-21.62Q16.65-39.17 18.95-41.35L18.95-41.35L18.95-41.35Q20.22-42.53 21.49-42.53" fill="#292664" stroke="none" stroke-width="none" transform="translate(-269.29998779296875,16.54950406901042)" style="fill: rgb(41, 38, 100);"></path>
            </g>
            <g class="path" style="filter: blur(10px); opacity: 0; transform-origin: -206.555px 1.3545px; animation: 1s linear 0.044s 1 normal forwards running blur-in-4576bc4c-bf56-4f3b-8c88-434be20b154e;">
               <path d="M71.72-1.54L71.72-1.54L71.72-1.54Q69.57-1.54 67.99-4.24L67.99-4.24L67.99-4.24Q66.96-6.02 64.74-11.52L64.74-11.52L64.74-11.52Q62.51-17.01 62.21-17.01L62.21-17.01L62.21-17.01Q62.12-17.01 59.70-11.88L59.70-11.88L59.70-11.88Q57.28-6.75 56.10-4.84L56.10-4.84L56.10-4.84Q54.22-1.85 52.49-1.85L52.49-1.85L52.49-1.85Q51.40-1.85 50.21-2.71L50.21-2.71L50.21-2.71Q49.01-3.57 48.29-5.54L48.29-5.54L48.29-5.54Q48.20-5.78 46.91-10.75L46.91-10.75L46.91-10.75Q45.62-15.71 44.27-20.07L44.27-20.07L44.27-20.07Q42.93-24.43 42.93-25.97L42.93-25.97L42.93-25.97Q42.93-27.52 43.59-28.18L43.59-28.18L43.59-28.18Q44.26-28.85 44.96-28.85L44.96-28.85L44.96-28.85Q47.77-28.85 48.92-26.52L48.92-26.52L48.92-26.52Q49.35-25.67 50.01-22.28L50.01-22.28L50.01-22.28Q53.19-9.84 54.28-9.08L54.28-9.08L54.28-9.08Q55.43-9.08 57.64-16.77L57.64-16.77L57.64-16.77Q58.55-19.92 58.84-22.43L58.84-22.43L58.84-22.43Q59.12-24.95 59.21-25.34L59.21-25.34L59.49-26.31L59.49-26.31Q60.40-28.70 63.10-28.70L63.10-28.70L63.10-28.70Q65.81-28.70 66.87-25.94L66.87-25.94L66.87-25.94Q67.30-24.82 67.66-22.02L67.66-22.02L67.66-22.02Q68.02-19.22 68.69-16.41L68.69-16.41L68.69-16.41Q70.36-9.20 71.32-9.20L71.32-9.20L71.32-9.20Q72.50-9.20 75.02-16.74L75.02-16.74L75.02-16.74Q75.80-19.10 76.67-22.52L76.67-22.52L76.67-22.52Q77.53-25.94 77.86-26.64L77.86-26.64L77.86-26.64Q78.95-28.79 81.31-28.79L81.31-28.79L81.31-28.79Q82.56-28.79 82.56-26.37L82.56-26.37L82.56-26.37Q82.56-24.95 79.47-15.55L79.47-15.55L79.47-15.55Q76.38-6.15 75.74-4.80L75.74-4.80L75.74-4.80Q75.11-3.45 73.93-2.50L73.93-2.50L73.93-2.50Q72.75-1.54 71.72-1.54" fill="#292664" stroke="none" stroke-width="none" transform="translate(-269.29998779296875,16.54950406901042)" style="fill: rgb(41, 38, 100);"></path>
            </g>
            <g class="path" style="filter: blur(10px); opacity: 0; transform-origin: -169.26px 1.7445px; animation: 1s linear 0.088s 1 normal forwards running blur-in-4576bc4c-bf56-4f3b-8c88-434be20b154e;">
               <path d="M94.15-18.41L94.15-18.41L94.15-17.92L94.15-17.92Q94.15-17.01 95.82-17.01L95.82-17.01L96.54-17.01L96.72-17.04L98.21-17.17L98.21-17.17Q100.54-17.50 101.23-17.50L101.23-17.50L101.23-17.50Q104.53-17.50 106.20-18.74L106.20-18.74L106.20-18.74Q106.99-19.34 106.99-20.89L106.99-20.89L106.99-21.22L106.99-21.22Q106.99-23.49 105.49-24.82L105.49-24.82L105.49-24.82Q103.99-26.16 101.90-26.16L101.90-26.16L101.69-26.16L101.51-26.13L101.51-26.13Q98.57-26.13 96.36-23.64L96.36-23.64L96.36-23.64Q94.15-21.16 94.15-18.41zM100.75 0.39L100.75 0.39L100.08 0.39L100.08 0.39Q94.30 0.39 90.88-3.28L90.88-3.28L90.88-3.28Q87.46-6.96 87.46-13.11L87.46-13.11L87.46-14.44L87.46-14.44Q87.46-17.38 88.61-20.40L88.61-20.40L88.61-20.40Q90.94-26.46 96.21-28.76L96.21-28.76L96.21-28.76Q98.99-30.00 101.87-30.00L101.87-30.00L103.17-30.00L103.17-30.00Q107.14-30.00 109.88-27.35L109.88-27.35L109.88-27.35Q112.62-24.70 112.62-20.53L112.62-20.53L112.62-19.92L112.62-19.92Q112.62-16.95 110.26-15.71L110.26-15.71L110.26-15.71Q108.62-14.83 102.63-13.96L102.63-13.96L102.63-13.96Q96.63-13.08 96.09-12.90L96.09-12.90L96.09-12.90Q94.27-12.26 94.27-10.47L94.27-10.47L94.27-10.47Q94.27-7.99 96.39-6.24L96.39-6.24L96.39-6.24Q98.51-4.48 102.08-4.48L102.08-4.48L102.08-4.48Q103.75-4.48 106.62-5.39L106.62-5.39L106.62-5.39Q109.50-6.30 109.95-6.30L109.95-6.30L109.95-6.30Q111.50-6.30 111.50-4.96L111.50-4.96L111.50-4.96Q111.50-3.18 108.02-1.39L108.02-1.39L108.02-1.39Q104.53 0.39 100.75 0.39" fill="#292664" stroke="none" stroke-width="none" transform="translate(-269.29998779296875,16.54950406901042)" style="fill: rgb(41, 38, 100);"></path>
            </g>
            <g class="path" style="filter: blur(10px); opacity: 0; transform-origin: -140.105px 1.5345px; animation: 1s linear 0.132s 1 normal forwards running blur-in-4576bc4c-bf56-4f3b-8c88-434be20b154e;">
               <path d="M121.32-16.91L121.32-16.91L121.32-16.91Q119.46-18.77 119.46-22.16L119.46-22.16L119.46-22.16Q119.46-25.55 122.49-27.99L122.49-27.99L122.49-27.99Q125.51-30.42 129.99-30.42L129.99-30.42L130.78-30.42L130.78-30.42Q134.75-30.42 137.09-29.30L137.09-29.30L137.09-29.30Q139.44-28.18 139.44-25.96L139.44-25.96L139.44-25.96Q139.44-23.73 137.47-23.73L137.47-23.73L137.47-23.73Q136.96-23.73 134.57-24.96L134.57-24.96L134.57-24.96Q132.17-26.19 130.05-26.19L130.05-26.19L130.05-26.19Q127.94-26.19 126.65-25.23L126.65-25.23L126.65-25.23Q125.36-24.28 125.36-22.61L125.36-22.61L125.36-22.61Q125.36-20.95 127.15-19.71L127.15-19.71L127.15-19.71Q128.18-18.98 132.01-17.41L132.01-17.41L132.01-17.41Q135.84-15.83 137.47-14.38L137.47-14.38L137.47-14.38Q140.11-12.05 140.11-8.42L140.11-8.42L140.11-8.42Q140.11-4.78 137.02-2.19L137.02-2.19L137.02-2.19Q133.93 0.39 129.00 0.39L129.00 0.39L128.21 0.39L128.21 0.39Q123.24 0.39 120.76-1.04L120.76-1.04L120.76-1.04Q118.28-2.48 118.28-4.80L118.28-4.80L118.28-4.80Q118.28-7.11 120.22-7.11L120.22-7.11L120.22-7.11Q120.85-7.11 123.53-5.48L123.53-5.48L123.53-5.48Q126.21-3.84 128.80-3.84L128.80-3.84L128.80-3.84Q131.39-3.84 132.69-4.95L132.69-4.95L132.69-4.95Q133.99-6.05 133.99-7.73L133.99-7.73L133.99-7.73Q133.99-9.42 132.36-10.69L132.36-10.69L132.36-10.69Q131.48-11.38 127.33-13.21L127.33-13.21L127.33-13.21Q123.18-15.05 121.32-16.91" fill="#292664" stroke="none" stroke-width="none" transform="translate(-269.29998779296875,16.54950406901042)" style="fill: rgb(41, 38, 100);"></path>
            </g>
            <g class="path" style="filter: blur(10px); opacity: 0; transform-origin: -109.835px 1.7045px; animation: 1s linear 0.176s 1 normal forwards running blur-in-4576bc4c-bf56-4f3b-8c88-434be20b154e;">
               <path d="M151.88-14.74L151.88-12.78L151.88-12.78Q151.88-8.81 153.70-6.18L153.70-6.18L153.70-6.18Q155.51-3.54 158.15-3.54L158.15-3.54L159.06-3.54L159.06-3.54Q162.17-3.54 164.34-6.69L164.34-6.69L164.34-6.69Q166.50-9.84 166.50-15.08L166.50-15.08L166.50-17.07L166.50-17.07Q166.50-21.13 164.73-23.72L164.73-23.72L164.73-23.72Q162.96-26.31 160.18-26.31L160.18-26.31L159.57-26.31L159.57-26.31Q156.33-26.31 154.14-23.10L154.14-23.10L154.14-23.10Q151.94-19.89 151.94-15.44L151.94-15.44L151.88-14.74zM158.72 0.58L158.72 0.58L157.75 0.58L157.75 0.58Q152.46 0.58 149.13-3.12L149.13-3.12L149.13-3.12Q145.80-6.81 145.80-13.59L145.80-13.59L145.83-14.11L145.83-14.11Q145.83-21.55 149.76-25.85L149.76-25.85L149.76-25.85Q151.82-28.12 154.47-29.20L154.47-29.20L154.47-29.20Q157.12-30.27 159.51-30.27L159.51-30.27L160.99-30.27L160.99-30.27Q163.66-30.27 166.11-29.09L166.11-29.09L166.11-29.09Q173.13-25.70 173.13-16.32L173.13-16.32L173.13-15.83L173.13-15.83Q173.10-12.78 172.13-9.63L172.13-9.63L172.13-9.63Q170.20-3.42 164.69-0.85L164.69-0.85L164.69-0.85Q161.63 0.58 158.72 0.58" fill="#292664" stroke="none" stroke-width="none" transform="translate(-269.29998779296875,16.54950406901042)" style="fill: rgb(41, 38, 100);"></path>
            </g>
            <g class="path" style="filter: blur(10px); opacity: 0; transform-origin: -68.3px 1.8095px; animation: 1s linear 0.22s 1 normal forwards running blur-in-4576bc4c-bf56-4f3b-8c88-434be20b154e;">
               <path d="M191.99-28.02L191.99-28.02L191.99-28.02Q194.33-28.88 196.78-28.88L196.78-28.88L196.78-28.88Q199.23-28.88 201.88-27.43L201.88-27.43L201.88-27.43Q204.53-25.97 204.77-25.97L204.77-25.97L204.77-25.97Q205.01-25.97 208.04-27.46L208.04-27.46L208.04-27.46Q211.07-28.94 213.50-28.94L213.50-28.94L213.50-28.94Q215.94-28.94 217.53-27.93L217.53-27.93L217.53-27.93Q219.12-26.91 219.94-25.52L219.94-25.52L219.94-25.52Q221.48-22.86 221.48-13.68L221.48-13.68L221.48-13.68Q221.48-9.57 221.56-8.98L221.56-8.98L221.56-8.98Q221.63-8.39 221.98-6.89L221.98-6.89L221.98-6.89Q222.33-5.39 222.33-4.44L222.33-4.44L222.33-4.44Q222.33-3.48 221.54-2.45L221.54-2.45L221.54-2.45Q220.75-1.42 219.45-1.42L219.45-1.42L219.45-1.42Q216.88-1.42 216.39-3.51L216.39-3.51L216.39-3.51Q216.03-5.03 215.55-12.35L215.55-12.35L215.55-12.35Q215.09-19.68 214.55-20.95L214.55-20.95L214.55-20.95Q213.46-23.61 209.92-23.61L209.92-23.61L209.92-23.61Q207.65-23.61 206.37-20.77L206.37-20.77L206.37-20.77Q204.53-16.68 204.53-9.14L204.53-9.14L204.83-4.78L204.83-4.78Q204.83-2.48 203.13-1.30L203.13-1.30L203.13-1.30Q202.04-0.54 200.24-0.54L200.24-0.54L200.24-0.54Q198.44-0.54 197.87-0.91L197.87-0.91L197.87-0.91Q196.87-1.51 196.87-3.48L196.87-3.48L196.87-3.48Q196.87-3.84 197.46-6.46L197.46-6.46L197.46-6.46Q198.05-9.08 198.05-15.00L198.05-15.00L198.05-15.00Q198.05-20.92 197.17-22.54L197.17-22.54L197.17-22.54Q196.29-24.16 194.11-24.16L194.11-24.16L194.11-24.16Q191.93-24.16 190.25-22.67L190.25-22.67L190.25-22.67Q188.57-21.19 187.80-19.44L187.80-19.44L187.80-19.44Q187.03-17.68 186.44-11.08L186.44-11.08L186.44-11.08Q185.85-4.48 185.61-3.51L185.61-3.51L185.61-3.51Q185.18-1.85 183.17-1.85L183.17-1.85L183.17-1.85Q181.16-1.85 180.41-3.04L180.41-3.04L180.41-3.04Q179.67-4.24 179.67-5.96L179.67-5.96L179.82-7.02L180.40-9.11L180.40-9.11Q180.76-10.57 180.82-12.50L180.82-12.50L180.82-12.50Q181.28-24.52 181.52-26.22L181.52-26.22L181.52-26.22Q181.76-27.91 183.70-27.91L183.70-27.91L188.21-27.16L188.21-27.16Q189.66-27.16 191.99-28.02" fill="#292664" stroke="none" stroke-width="none" transform="translate(-269.29998779296875,16.54950406901042)" style="fill: rgb(41, 38, 100);"></path>
            </g>
            <g class="path" style="filter: blur(10px); opacity: 0; transform-origin: -28.065px 1.7445px; animation: 1s linear 0.264s 1 normal forwards running blur-in-4576bc4c-bf56-4f3b-8c88-434be20b154e;">
               <path d="M235.35-18.41L235.35-18.41L235.35-17.92L235.35-17.92Q235.35-17.01 237.01-17.01L237.01-17.01L237.74-17.01L237.92-17.04L239.40-17.17L239.40-17.17Q241.73-17.50 242.43-17.50L242.43-17.50L242.43-17.50Q245.73-17.50 247.39-18.74L247.39-18.74L247.39-18.74Q248.18-19.34 248.18-20.89L248.18-20.89L248.18-21.22L248.18-21.22Q248.18-23.49 246.68-24.82L246.68-24.82L246.68-24.82Q245.18-26.16 243.10-26.16L243.10-26.16L242.88-26.16L242.70-26.13L242.70-26.13Q239.77-26.13 237.56-23.64L237.56-23.64L237.56-23.64Q235.35-21.16 235.35-18.41zM241.95 0.39L241.95 0.39L241.28 0.39L241.28 0.39Q235.50 0.39 232.08-3.28L232.08-3.28L232.08-3.28Q228.66-6.96 228.66-13.11L228.66-13.11L228.66-14.44L228.66-14.44Q228.66-17.38 229.81-20.40L229.81-20.40L229.81-20.40Q232.14-26.46 237.40-28.76L237.40-28.76L237.40-28.76Q240.19-30.00 243.07-30.00L243.07-30.00L244.37-30.00L244.37-30.00Q248.33-30.00 251.07-27.35L251.07-27.35L251.07-27.35Q253.81-24.70 253.81-20.53L253.81-20.53L253.81-19.92L253.81-19.92Q253.81-16.95 251.45-15.71L251.45-15.71L251.45-15.71Q249.82-14.83 243.82-13.96L243.82-13.96L243.82-13.96Q237.83-13.08 237.28-12.90L237.28-12.90L237.28-12.90Q235.47-12.26 235.47-10.47L235.47-10.47L235.47-10.47Q235.47-7.99 237.59-6.24L237.59-6.24L237.59-6.24Q239.71-4.48 243.28-4.48L243.28-4.48L243.28-4.48Q244.94-4.48 247.82-5.39L247.82-5.39L247.82-5.39Q250.69-6.30 251.15-6.30L251.15-6.30L251.15-6.30Q252.69-6.30 252.69-4.96L252.69-4.96L252.69-4.96Q252.69-3.18 249.21-1.39L249.21-1.39L249.21-1.39Q245.73 0.39 241.95 0.39" fill="#292664" stroke="none" stroke-width="none" transform="translate(-269.29998779296875,16.54950406901042)" style="fill: rgb(41, 38, 100);"></path>
            </g>
            <g class="path" style="filter: blur(10px); opacity: 0; transform-origin: 24.46px -5.0505px; animation: 1s linear 0.308s 1 normal forwards running blur-in-4576bc4c-bf56-4f3b-8c88-434be20b154e;">
               <path d="M291.84-17.41L295.89-17.41L295.89-17.41Q299.65-17.41 299.65-18.38L299.65-18.38L299.65-18.59L299.65-18.59Q299.65-19.10 297.62-27.17L297.62-27.17L297.62-27.17Q295.59-35.24 294.89-35.24L294.89-35.24L294.77-35.24L294.77-35.24Q294.71-35.24 293.62-32.88L293.62-32.88L293.62-32.88Q287.99-20.80 287.99-18.16L287.99-18.16L287.99-17.98L287.99-17.98Q287.99-17.53 289.14-17.53L289.14-17.53L289.63-17.47L291.84-17.41zM295.20-42.53L295.20-42.53L295.89-42.53L295.89-42.53Q298.47-42.53 300.49-37.84L300.49-37.84L300.49-37.84Q303.95-29.94 308.33-12.32L308.33-12.32L308.33-12.32Q308.91-10.08 310.05-7.84L310.05-7.84L310.05-7.84Q311.18-5.60 311.18-5.00L311.18-5.00L311.18-5.00Q311.18-3.27 310.03-1.97L310.03-1.97L310.03-1.97Q308.88-0.67 307.31-0.67L307.31-0.67L306.64-0.67L306.64-0.67Q304.01-0.67 303.34-2.33L303.34-2.33L303.34-2.33Q303.22-2.60 303.08-3.89L303.08-3.89L303.08-3.89Q302.95-5.18 302.70-6.30L302.70-6.30L302.70-6.30Q301.86-10.23 300.60-11.70L300.60-11.70L300.60-11.70Q299.34-13.17 293.53-13.17L293.53-13.17L293.53-13.17Q287.72-13.17 286.34-11.84L286.34-11.84L286.34-11.84Q284.96-10.50 283.48-6.39L283.48-6.39L283.48-6.39Q283.03-5.12 282.77-3.57L282.77-3.57L282.77-3.57Q282.51-2.03 282.24-1.57L282.24-1.57L282.24-1.57Q281.69-0.70 280.01-0.70L280.01-0.70L280.01-0.70Q278.33-0.70 277.33-1.85L277.33-1.85L277.33-1.85Q276.34-3.00 276.34-4.56L276.34-4.56L276.34-4.56Q276.34-6.12 277.91-8.29L277.91-8.29L277.91-8.29Q279.45-10.47 283.69-21.62L283.69-21.62L283.69-21.62Q290.35-39.17 292.65-41.35L292.65-41.35L292.65-41.35Q293.92-42.53 295.20-42.53" fill="#292664" stroke="none" stroke-width="none" transform="translate(-269.29998779296875,16.54950406901042)" style="fill: rgb(41, 38, 100);"></path>
            </g>
            <g class="path" style="filter: blur(10px); opacity: 0; transform-origin: 55.7px -4.7455px; animation: 1s linear 0.352s 1 normal forwards running blur-in-4576bc4c-bf56-4f3b-8c88-434be20b154e;">
               <path d="M325.65-0.12L325.65-0.12L323.93-0.12L323.93-0.12Q321.29-0.12 319.85-0.79L319.85-0.79L319.85-0.79Q318.42-1.45 318.42-2.44L318.42-2.44L318.42-2.44Q318.42-3.42 319.57-5.22L319.57-5.22L319.57-5.22Q320.72-7.02 321.08-9.23L321.08-9.23L321.08-9.23Q321.87-13.96 321.87-20.53L321.87-20.53L321.87-20.53Q321.87-20.56 321.96-22.34L321.96-22.34L322.08-24.70L322.17-28.82L322.17-28.82Q322.17-33.60 321.87-34.86L321.87-34.86L321.87-34.86Q321.56-36.12 320.76-37.40L320.76-37.40L320.76-37.40Q319.96-38.69 319.96-39.45L319.96-39.45L319.96-39.45Q319.96-42.47 326.38-42.47L326.38-42.47L327.53-42.47L327.53-42.47Q329.44-42.47 330.51-41.73L330.51-41.73L330.51-41.73Q331.58-40.99 331.58-40.20L331.58-40.20L331.58-39.75L331.58-39.75Q331.58-39.33 330.66-37.75L330.66-37.75L330.66-37.75Q329.74-36.18 329.50-34.81L329.50-34.81L329.50-34.81Q328.53-29.49 328.53-19.95L328.53-19.95L328.32-15.74L328.32-15.74Q328.29-15.14 328.29-14.56L328.29-14.56L328.19-12.78L328.13-10.47L328.13-10.47Q328.13-7.51 328.48-6.54L328.48-6.54L328.48-6.54Q328.83-5.57 329.38-4.60L329.38-4.60L329.38-4.60Q329.92-3.63 329.92-2.57L329.92-2.57L329.92-2.57Q329.92-1.51 328.63-0.82L328.63-0.82L328.63-0.82Q327.35-0.12 325.65-0.12" fill="#292664" stroke="none" stroke-width="none" transform="translate(-269.29998779296875,16.54950406901042)" style="fill: rgb(41, 38, 100);"></path>
            </g>
            <g class="path" style="filter: blur(10px); opacity: 0; transform-origin: 104.38px -1.6605px; animation: 1s linear 0.396s 1 normal forwards running blur-in-4576bc4c-bf56-4f3b-8c88-434be20b154e;">
               <path d="M361.74-20.77L361.74-19.71L361.74-19.71Q361.74-15.89 362.69-12.93L362.69-12.93L362.69-12.93Q363.64-9.96 364.87-8.34L364.87-8.34L364.87-8.34Q366.10-6.72 368.03-5.52L368.03-5.52L368.03-5.52Q369.97-4.33 372.12-4.33L372.12-4.33L373.45-4.33L373.45-4.33Q375.75-4.33 378.34-6.05L378.34-6.05L378.34-6.05Q380.93-7.78 382.87-10.60L382.87-10.60L382.87-10.60Q386.08-15.32 386.08-21.89L386.08-21.89L386.08-22.92L386.08-22.92Q386.08-26.34 385.17-29.46L385.17-29.46L385.17-29.46Q383.47-35.27 379.69-37.33L379.69-37.33L379.69-37.33Q377.36-38.63 375.06-38.63L375.06-38.63L374.03-38.63L374.03-38.63Q368.88-38.63 365.43-34.09L365.43-34.09L365.43-34.09Q363.80-31.94 362.80-28.40L362.80-28.40L362.80-28.40Q361.80-24.85 361.80-21.83L361.80-21.83L361.74-20.77zM392.34-23.40L392.34-23.40L392.34-21.77L392.34-21.77Q392.34-13.26 388.29-6.36L388.29-6.36L388.29-6.36Q385.71-2.00 385.71-1.51L385.71-1.51L385.71-1.51Q385.71-0.36 388.53 2.06L388.53 2.06L388.53 2.06Q391.34 4.48 391.34 4.92L391.34 4.92L391.34 4.92Q391.34 5.36 390.19 6.05L390.19 6.05L390.19 6.05Q389.04 6.75 386.80 6.75L386.80 6.75L386.08 6.75L386.08 6.75Q382.90 6.75 376.03 3.84L376.03 3.84L376.03 3.84Q365.10-0.76 361.92-3.60L361.92-3.60L361.92-3.60Q358.77-6.45 356.89-10.90L356.89-10.90L356.89-10.90Q355.02-15.32 355.02-20.53L355.02-20.53L355.02-20.53Q355.02-36.06 366.07-41.44L366.07-41.44L366.07-41.44Q369.58-43.17 373.12-43.17L373.12-43.17L374.82-43.17L374.82-43.17Q378.63-43.17 382.08-41.66L382.08-41.66L382.08-41.66Q388.44-38.87 390.95-32.21L390.95-32.21L390.95-32.21Q392.34-28.43 392.34-23.40" fill="#292664" stroke="none" stroke-width="none" transform="translate(-269.29998779296875,16.54950406901042)" style="fill: rgb(41, 38, 100);"></path>
            </g>
            <g class="path" style="filter: blur(10px); opacity: 0; transform-origin: 144.28px 1.7495px; animation: 1s linear 0.44s 1 normal forwards running blur-in-4576bc4c-bf56-4f3b-8c88-434be20b154e;">
               <path d="M400.21-27.22L400.21-27.22L400.21-27.22Q400.21-29.12 403.42-29.12L403.42-29.12L404.12-29.12L404.12-29.12Q406.12-29.12 406.81-27.52L406.81-27.52L406.81-27.52Q407.51-25.91 407.51-21.52L407.51-21.52L407.15-11.41L407.15-11.41Q407.15-4.36 412.20-4.36L412.20-4.36L412.20-4.36Q414.05-4.36 415.75-5.66L415.75-5.66L415.75-5.66Q417.44-6.96 418.26-8.78L418.26-8.78L418.26-8.78Q420.04-12.78 420.04-23.10L420.04-23.10L419.98-24.43L419.98-25.61L419.98-25.61Q419.98-27.22 420.71-27.94L420.71-27.94L420.71-27.94Q421.44-28.67 423.25-28.67L423.25-28.67L423.25-28.67Q425.07-28.67 425.64-27.79L425.64-27.79L425.64-27.79Q426.22-26.91 426.22-24.95L426.22-24.95L426.16-23.34L426.04-16.20L426.04-16.20Q426.04-14.47 426.25-10.90L426.25-10.90L426.25-10.90Q426.46-7.33 426.70-5.68L426.70-5.68L426.70-5.68Q426.95-4.03 426.95-3.72L426.95-3.72L426.95-3.72Q426.95-1.03 422.98-1.03L422.98-1.03L422.98-1.03Q421.62-1.03 420.27-2.04L420.27-2.04L420.27-2.04Q418.92-3.06 418.36-3.06L418.36-3.06L418.36-3.06Q417.80-3.06 416.47-2.39L416.47-2.39L416.47-2.39Q412.69-0.48 410.02-0.48L410.02-0.48L409.27-0.48L409.27-0.48Q404.94-0.48 402.91-3.15L402.91-3.15L402.91-3.15Q400.88-5.81 400.88-12.75L400.88-12.75L401.18-21.92L401.18-21.92Q401.18-23.64 400.70-25.22L400.70-25.22L400.70-25.22Q400.21-26.79 400.21-27.22" fill="#292664" stroke="none" stroke-width="none" transform="translate(-269.29998779296875,16.54950406901042)" style="fill: rgb(41, 38, 100);"></path>
            </g>
            <g class="path" style="filter: blur(10px); opacity: 0; transform-origin: 178.035px 1.7045px; animation: 1s linear 0.484s 1 normal forwards running blur-in-4576bc4c-bf56-4f3b-8c88-434be20b154e;">
               <path d="M439.75-14.74L439.75-12.78L439.75-12.78Q439.75-8.81 441.57-6.18L441.57-6.18L441.57-6.18Q443.38-3.54 446.02-3.54L446.02-3.54L446.93-3.54L446.93-3.54Q450.04-3.54 452.21-6.69L452.21-6.69L452.21-6.69Q454.37-9.84 454.37-15.08L454.37-15.08L454.37-17.07L454.37-17.07Q454.37-21.13 452.60-23.72L452.60-23.72L452.60-23.72Q450.83-26.31 448.05-26.31L448.05-26.31L447.44-26.31L447.44-26.31Q444.20-26.31 442.01-23.10L442.01-23.10L442.01-23.10Q439.81-19.89 439.81-15.44L439.81-15.44L439.75-14.74zM446.59 0.58L446.59 0.58L445.63 0.58L445.63 0.58Q440.33 0.58 437.00-3.12L437.00-3.12L437.00-3.12Q433.67-6.81 433.67-13.59L433.67-13.59L433.70-14.11L433.70-14.11Q433.70-21.55 437.63-25.85L437.63-25.85L437.63-25.85Q439.69-28.12 442.34-29.20L442.34-29.20L442.34-29.20Q444.99-30.27 447.38-30.27L447.38-30.27L448.86-30.27L448.86-30.27Q451.53-30.27 453.98-29.09L453.98-29.09L453.98-29.09Q461.00-25.70 461.00-16.32L461.00-16.32L461.00-15.83L461.00-15.83Q460.97-12.78 460.00-9.63L460.00-9.63L460.00-9.63Q458.07-3.42 452.56-0.85L452.56-0.85L452.56-0.85Q449.50 0.58 446.59 0.58" fill="#292664" stroke="none" stroke-width="none" transform="translate(-269.29998779296875,16.54950406901042)" style="fill: rgb(41, 38, 100);"></path>
            </g>
            <g class="path" style="filter: blur(10px); opacity: 0; transform-origin: 205.77px -2.8255px; animation: 1s linear 0.528s 1 normal forwards running blur-in-4576bc4c-bf56-4f3b-8c88-434be20b154e;">
               <path d="M482.95-3.24L482.95-3.24L482.95-3.24Q482.95-2.03 481.48-1.07L481.48-1.07L481.48-1.07Q480.02-0.12 477.50-0.12L477.50-0.12L477.50-0.12Q472.81-0.12 470.90-3.60L470.90-3.60L470.90-3.60Q469.72-5.78 469.72-13.80L469.72-13.80L469.72-13.80Q469.72-21.83 469.45-23.13L469.45-23.13L469.45-23.13Q469.18-24.43 467.94-25.67L467.94-25.67L467.94-25.67Q466.70-26.91 466.70-27.58L466.70-27.58L466.70-27.58Q466.70-27.82 469.63-30.76L469.63-30.76L469.63-30.76Q470.27-31.39 470.92-33.57L470.92-33.57L470.92-33.57Q471.57-35.75 471.84-36.45L471.84-36.45L471.84-36.45Q472.75-38.63 474.23-38.63L474.23-38.63L474.72-38.63L474.72-38.63Q476.02-38.63 476.56-37.63L476.56-37.63L476.56-37.63Q476.78-37.24 477.22-34.80L477.22-34.80L477.22-34.80Q477.65-32.36 478.23-31.67L478.23-31.67L478.23-31.67Q478.80-30.97 481.12-30.14L481.12-30.14L481.12-30.14Q483.44-29.30 483.44-28.37L483.44-28.37L483.44-28.03L483.44-28.03Q483.44-26.82 480.79-25.99L480.79-25.99L480.79-25.99Q478.14-25.16 477.38-23.34L477.38-23.34L477.38-23.34Q475.90-19.68 475.90-11.41L475.90-11.41L475.90-11.41Q475.90-7.54 477.23-6.15L477.23-6.15L477.23-6.15Q478.05-5.30 480.50-4.96L480.50-4.96L480.50-4.96Q482.95-4.63 482.95-3.24" fill="#292664" stroke="none" stroke-width="none" transform="translate(-269.29998779296875,16.54950406901042)" style="fill: rgb(41, 38, 100);"></path>
            </g>
            <g class="path" style="filter: blur(10px); opacity: 0; transform-origin: 231.86px 1.7445px; animation: 1s linear 0.572s 1 normal forwards running blur-in-4576bc4c-bf56-4f3b-8c88-434be20b154e;">
               <path d="M495.27-18.41L495.27-18.41L495.27-17.92L495.27-17.92Q495.27-17.01 496.94-17.01L496.94-17.01L497.67-17.01L497.85-17.04L499.33-17.17L499.33-17.17Q501.66-17.50 502.36-17.50L502.36-17.50L502.36-17.50Q505.66-17.50 507.32-18.74L507.32-18.74L507.32-18.74Q508.11-19.34 508.11-20.89L508.11-20.89L508.11-21.22L508.11-21.22Q508.11-23.49 506.61-24.82L506.61-24.82L506.61-24.82Q505.11-26.16 503.02-26.16L503.02-26.16L502.81-26.16L502.63-26.13L502.63-26.13Q499.69-26.13 497.48-23.64L497.48-23.64L497.48-23.64Q495.27-21.16 495.27-18.41zM501.87 0.39L501.87 0.39L501.21 0.39L501.21 0.39Q495.42 0.39 492.00-3.28L492.00-3.28L492.00-3.28Q488.58-6.96 488.58-13.11L488.58-13.11L488.58-14.44L488.58-14.44Q488.58-17.38 489.73-20.40L489.73-20.40L489.73-20.40Q492.06-26.46 497.33-28.76L497.33-28.76L497.33-28.76Q500.12-30.00 502.99-30.00L502.99-30.00L504.29-30.00L504.29-30.00Q508.26-30.00 511.00-27.35L511.00-27.35L511.00-27.35Q513.74-24.70 513.74-20.53L513.74-20.53L513.74-19.92L513.74-19.92Q513.74-16.95 511.38-15.71L511.38-15.71L511.38-15.71Q509.74-14.83 503.75-13.96L503.75-13.96L503.75-13.96Q497.76-13.08 497.21-12.90L497.21-12.90L497.21-12.90Q495.39-12.26 495.39-10.47L495.39-10.47L495.39-10.47Q495.39-7.99 497.51-6.24L497.51-6.24L497.51-6.24Q499.63-4.48 503.21-4.48L503.21-4.48L503.21-4.48Q504.87-4.48 507.75-5.39L507.75-5.39L507.75-5.39Q510.62-6.30 511.08-6.30L511.08-6.30L511.08-6.30Q512.62-6.30 512.62-4.96L512.62-4.96L512.62-4.96Q512.62-3.18 509.14-1.39L509.14-1.39L509.14-1.39Q505.66 0.39 501.87 0.39" fill="#292664" stroke="none" stroke-width="none" transform="translate(-269.29998779296875,16.54950406901042)" style="fill: rgb(41, 38, 100);"></path>
            </g>
            <g class="path" style="filter: blur(10px); opacity: 0; transform-origin: 261.015px 1.5345px; animation: 1s linear 0.616s 1 normal forwards running blur-in-4576bc4c-bf56-4f3b-8c88-434be20b154e;">
               <path d="M522.44-16.91L522.44-16.91L522.44-16.91Q520.58-18.77 520.58-22.16L520.58-22.16L520.58-22.16Q520.58-25.55 523.61-27.99L523.61-27.99L523.61-27.99Q526.64-30.42 531.12-30.42L531.12-30.42L531.90-30.42L531.90-30.42Q535.87-30.42 538.22-29.30L538.22-29.30L538.22-29.30Q540.56-28.18 540.56-25.96L540.56-25.96L540.56-25.96Q540.56-23.73 538.59-23.73L538.59-23.73L538.59-23.73Q538.08-23.73 535.69-24.96L535.69-24.96L535.69-24.96Q533.30-26.19 531.18-26.19L531.18-26.19L531.18-26.19Q529.06-26.19 527.77-25.23L527.77-25.23L527.77-25.23Q526.49-24.28 526.49-22.61L526.49-22.61L526.49-22.61Q526.49-20.95 528.27-19.71L528.27-19.71L528.27-19.71Q529.30-18.98 533.13-17.41L533.13-17.41L533.13-17.41Q536.96-15.83 538.59-14.38L538.59-14.38L538.59-14.38Q541.23-12.05 541.23-8.42L541.23-8.42L541.23-8.42Q541.23-4.78 538.14-2.19L538.14-2.19L538.14-2.19Q535.05 0.39 530.12 0.39L530.12 0.39L529.33 0.39L529.33 0.39Q524.37 0.39 521.88-1.04L521.88-1.04L521.88-1.04Q519.40-2.48 519.40-4.80L519.40-4.80L519.40-4.80Q519.40-7.11 521.34-7.11L521.34-7.11L521.34-7.11Q521.97-7.11 524.65-5.48L524.65-5.48L524.65-5.48Q527.33-3.84 529.92-3.84L529.92-3.84L529.92-3.84Q532.51-3.84 533.81-4.95L533.81-4.95L533.81-4.95Q535.11-6.05 535.11-7.73L535.11-7.73L535.11-7.73Q535.11-9.42 533.48-10.69L533.48-10.69L533.48-10.69Q532.60-11.38 528.45-13.21L528.45-13.21L528.45-13.21Q524.31-15.05 522.44-16.91" fill="#292664" stroke="none" stroke-width="none" transform="translate(-269.29998779296875,16.54950406901042)" style="fill: rgb(41, 38, 100);"></path>
            </g>
         </g>
      </g>
   </g>
</svg>
