<svg xmlns="http://www.w3.org/2000/svg" style="margin:auto;background:rgba(0,0,0,0);display:block;transition: opacity 0.5s linear;width: 820px; height: 177px;" width="820" height="177" preserveAspectRatio="xMidYMid">
   <style type="text/css">
      text {
        text-anchor: middle;
        font-size: 80px;
        opacity: 0;
      }
     @keyframes blur-in-4576bc4c-bf56-4f3b-8c88-434be20b154e {
      0% {
        filter: blur(10px);
        opacity: 0;
      }
     100% {
      filter: blur(0);
      opacity: 1;
      }
    }
   </style>
   <g style="transform-origin:410px 88.5px;transform:scale(1);">
      <g transform="translate(410,88.5)">
         <g transform="translate(0,0)">
            <g class="path" style="filter: blur(10px);opacity: 0;transform-origin: -284.32px -5.82016px;animation: 1s linear 0s 1 normal forwards running blur-in-4576bc4c-bf56-4f3b-8c88-434be20b154e;">
               <path d="M36.56 0L30.16-19.60L11.92-19.60L5.68 0L0.96 0L18.88-56L23.12-56L41.36 0L36.56 0zM20.96-49.04L13.20-24L28.96-24L20.96-49.04" fill="#0a0a0a" stroke="none" stroke-width="none" transform="translate(-305.47998046875,22.179838948567706)" style="fill: rgb(10, 10, 10);"></path>
            </g>
            <g class="path" style="filter: blur(10px); opacity: 0; transform-origin: -235.28px 2.13984px; animation: 1s linear 0.044s 1 normal forwards running blur-in-4576bc4c-bf56-4f3b-8c88-434be20b154e;">
               <path d="M78.24 0L70.16-32.40L62 0L55.84 0L43.60-40.08L48.32-40.08L58.96-4.64L68-40.08L72.56-40.08L81.36-4.64L92.08-40.08L96.80-40.08L84.40 0L78.24 0" fill="#0a0a0a" stroke="none" stroke-width="none" transform="translate(-305.47998046875,22.179838948567706)" style="fill: rgb(10, 10, 10);"></path>
            </g>
            <g class="path" style="filter: blur(10px); opacity: 0; transform-origin: -189.8px 2.25984px; animation: 1s linear 0.088s 1 normal forwards running blur-in-4576bc4c-bf56-4f3b-8c88-434be20b154e;">
               <path d="M128.08-2.80L128.08-2.80Q125.20-0.96 121.52 0L121.52 0L121.52 0Q117.84 0.96 114.16 0.96L114.16 0.96L114.16 0.96Q108.24 0.96 104.76-1.96L104.76-1.96L104.76-1.96Q101.28-4.88 101.28-10.72L101.28-10.72L101.28-27.12L101.28-27.12Q101.28-33.60 105.32-37.20L105.32-37.20L105.32-37.20Q109.36-40.80 116-40.80L116-40.80L116-40.80Q122.64-40.80 126.36-37.24L126.36-37.24L126.36-37.24Q130.08-33.68 130.08-27.36L130.08-27.36L130.08-16.96L105.76-15.60L105.76-10.72L105.76-10.72Q105.76-6.88 108.24-4.96L108.24-4.96L108.24-4.96Q110.72-3.04 114.72-3.04L114.72-3.04L114.72-3.04Q120.32-3.04 126.32-6.24L126.32-6.24L128.08-2.80zM125.60-27.92L125.60-27.92Q125.60-32.88 122.48-34.92L122.48-34.92L122.48-34.92Q119.36-36.96 115.92-36.96L115.92-36.96L115.92-36.96Q111.52-36.96 108.64-34.56L108.64-34.56L108.64-34.56Q105.76-32.16 105.76-27.04L105.76-27.04L105.76-20L125.60-20.96L125.60-27.92" fill="#0a0a0a" stroke="none" stroke-width="none" transform="translate(-305.47998046875,22.179838948567706)" style="fill: rgb(10, 10, 10);"></path>
            </g>
            <g class="path" style="filter: blur(10px); opacity: 0; transform-origin: -155px 2.25984px; animation: 1s linear 0.132s 1 normal forwards running blur-in-4576bc4c-bf56-4f3b-8c88-434be20b154e;">
               <path d="M140.32-10.16L140.32-10.16Q140.80-6.56 143.92-4.76L143.92-4.76L143.92-4.76Q147.04-2.96 150.88-2.96L150.88-2.96L150.88-2.96Q154.48-2.96 157.44-4.60L157.44-4.60L157.44-4.60Q160.40-6.24 160.40-9.92L160.40-9.92L160.40-9.92Q160.40-12.32 159-13.88L159-13.88L159-13.88Q157.60-15.44 155.52-16.40L155.52-16.40L155.52-16.40Q153.44-17.36 149.92-18.48L149.92-18.48L149.92-18.48Q146-19.76 143.52-20.88L143.52-20.88L143.52-20.88Q141.04-22 139.20-24.04L139.20-24.04L139.20-24.04Q137.36-26.08 137.04-29.20L137.04-29.20L136.96-30.16L136.96-30.16Q136.96-32.80 138.44-35.32L138.44-35.32L138.44-35.32Q139.92-37.84 143-39.44L143-39.44L143-39.44Q146.08-41.04 150.72-41.04L150.72-41.04L150.72-41.04Q153.28-41.04 155.24-40.52L155.24-40.52L155.24-40.52Q157.20-40 158.32-39.44L158.32-39.44L158.32-39.44Q159.44-38.88 159.68-38.72L159.68-38.72L158.16-35.04L158.16-35.04Q157.92-35.20 157-35.68L157-35.68L157-35.68Q156.08-36.16 154.40-36.64L154.40-36.64L154.40-36.64Q152.72-37.12 150.72-37.12L150.72-37.12L150.72-37.12Q146.88-37.12 144.16-35.32L144.16-35.32L144.16-35.32Q141.44-33.52 141.44-30.32L141.44-30.32L141.44-30.32Q141.44-27.28 143.92-25.68L143.92-25.68L143.92-25.68Q146.40-24.08 151.52-22.48L151.52-22.48L151.52-22.48Q155.84-21.04 158.48-19.76L158.48-19.76L158.48-19.76Q161.12-18.48 163-16.12L163-16.12L163-16.12Q164.88-13.76 164.88-10L164.88-10L164.88-10Q164.88-5.20 161.32-2L161.32-2L161.32-2Q157.76 1.20 150.88 1.20L150.88 1.20L150.88 1.20Q146.32 1.20 143-0.36L143-0.36L143-0.36Q139.68-1.92 137.96-4.48L137.96-4.48L137.96-4.48Q136.24-7.04 136.08-10.16L136.08-10.16L140.32-10.16" fill="#0a0a0a" stroke="none" stroke-width="none" transform="translate(-305.47998046875,22.179838948567706)" style="fill: rgb(10, 10, 10);"></path>
            </g>
            <g class="path" style="filter: blur(10px); opacity: 0; transform-origin: -116.64px 2.09984px; animation: 1s linear 0.176s 1 normal forwards running blur-in-4576bc4c-bf56-4f3b-8c88-434be20b154e;">
               <path d="M203.76-14.72L203.76-14.72Q203.76-8 200.08-3.60L200.08-3.60L200.08-3.60Q196.40 0.80 188.96 0.80L188.96 0.80L188.96 0.80Q181.52 0.80 177.72-3.64L177.72-3.64L177.72-3.64Q173.92-8.08 173.92-14.72L173.92-14.72L173.92-25.28L173.92-25.28Q173.92-32.88 177.80-36.92L177.80-36.92L177.80-36.92Q181.68-40.96 188.96-40.96L188.96-40.96L188.96-40.96Q195.92-40.96 199.84-36.76L199.84-36.76L199.84-36.76Q203.76-32.56 203.76-25.28L203.76-25.28L203.76-14.72zM199.28-25.28L199.28-25.28Q199.28-31.28 196.52-34.08L196.52-34.08L196.52-34.08Q193.76-36.88 188.96-36.88L188.96-36.88L188.96-36.88Q184-36.88 181.20-34.08L181.20-34.08L181.20-34.08Q178.40-31.28 178.40-25.28L178.40-25.28L178.40-13.92L178.40-13.92Q178.40-9.12 181.24-6.16L181.24-6.16L181.24-6.16Q184.08-3.20 188.96-3.20L188.96-3.20L188.96-3.20Q193.92-3.20 196.60-6.12L196.60-6.12L196.60-6.12Q199.28-9.04 199.28-13.92L199.28-13.92L199.28-25.28" fill="#0a0a0a" stroke="none" stroke-width="none" transform="translate(-305.47998046875,22.179838948567706)" style="fill: rgb(10, 10, 10);"></path>
            </g>
            <g class="path" style="filter: blur(10px); opacity: 0; transform-origin: -67.88px 1.77984px; animation: 1s linear 0.22s 1 normal forwards running blur-in-4576bc4c-bf56-4f3b-8c88-434be20b154e;">
               <path d="M258.16 0L258.16-27.44L258.16-27.44Q258.16-32.24 255.64-34.48L255.64-34.48L255.64-34.48Q253.12-36.72 249.12-36.72L249.12-36.72L249.12-36.72Q246-36.72 242.16-35.36L242.16-35.36L239.20-33.92L239.20-33.92Q240.56-31.20 240.56-27.68L240.56-27.68L240.56 0L236.16 0L236.16-27.44L236.16-27.44Q236.16-32.32 233.64-34.52L233.64-34.52L233.64-34.52Q231.12-36.72 227.04-36.72L227.04-36.72L227.04-36.72Q224.56-36.72 221.92-35.96L221.92-35.96L221.92-35.96Q219.28-35.20 217.12-34L217.12-34L217.12 0L212.64 0L212.64-40.08L217.12-40.08L216.72-37.52L216.72-37.52Q222-40.64 227.52-40.64L227.52-40.64L227.52-40.64Q230.40-40.64 232.92-39.68L232.92-39.68L232.92-39.68Q235.44-38.72 237.20-36.88L237.20-36.88L237.20-36.88Q238.32-37.52 240.56-38.64L240.56-38.64L240.56-38.64Q245.28-40.80 249.68-40.80L249.68-40.80L249.68-40.80Q255.36-40.80 258.96-37.32L258.96-37.32L258.96-37.32Q262.56-33.84 262.56-27.68L262.56-27.68L262.56 0L258.16 0" fill="#0a0a0a" stroke="none" stroke-width="none" transform="translate(-305.47998046875,22.179838948567706)" style="fill: rgb(10, 10, 10);"></path>
            </g>
            <g class="path" style="filter: blur(10px); opacity: 0; transform-origin: -23.08px 2.25984px; animation: 1s linear 0.264s 1 normal forwards running blur-in-4576bc4c-bf56-4f3b-8c88-434be20b154e;">
               <path d="M294.80-2.80L294.80-2.80Q291.92-0.96 288.24 0L288.24 0L288.24 0Q284.56 0.96 280.88 0.96L280.88 0.96L280.88 0.96Q274.96 0.96 271.48-1.96L271.48-1.96L271.48-1.96Q268-4.88 268-10.72L268-10.72L268-27.12L268-27.12Q268-33.60 272.04-37.20L272.04-37.20L272.04-37.20Q276.08-40.80 282.72-40.80L282.72-40.80L282.72-40.80Q289.36-40.80 293.08-37.24L293.08-37.24L293.08-37.24Q296.80-33.68 296.80-27.36L296.80-27.36L296.80-16.96L272.48-15.60L272.48-10.72L272.48-10.72Q272.48-6.88 274.96-4.96L274.96-4.96L274.96-4.96Q277.44-3.04 281.44-3.04L281.44-3.04L281.44-3.04Q287.04-3.04 293.04-6.24L293.04-6.24L294.80-2.80zM292.32-27.92L292.32-27.92Q292.32-32.88 289.20-34.92L289.20-34.92L289.20-34.92Q286.08-36.96 282.64-36.96L282.64-36.96L282.64-36.96Q278.24-36.96 275.36-34.56L275.36-34.56L275.36-34.56Q272.48-32.16 272.48-27.04L272.48-27.04L272.48-20L292.32-20.96L292.32-27.92" fill="#0a0a0a" stroke="none" stroke-width="none" transform="translate(-305.47998046875,22.179838948567706)" style="fill: rgb(10, 10, 10);"></path>
            </g>
            <g class="path" style="filter: blur(10px); opacity: 0; transform-origin: 37.84px -5.82016px; animation: 1s linear 0.308s 1 normal forwards running blur-in-4576bc4c-bf56-4f3b-8c88-434be20b154e;">
               <path d="M358.72 0L352.32-19.60L334.08-19.60L327.84 0L323.12 0L341.04-56L345.28-56L363.52 0L358.72 0zM343.12-49.04L335.36-24L351.12-24L343.12-49.04" fill="#0a0a0a" stroke="none" stroke-width="none" transform="translate(-305.47998046875,22.179838948567706)" style="fill: rgb(10, 10, 10);"></path>
            </g>
            <g class="path" style="filter: blur(10px); opacity: 0; transform-origin: 69.04px -5.82016px; animation: 1s linear 0.352s 1 normal forwards running blur-in-4576bc4c-bf56-4f3b-8c88-434be20b154e;">
               <path d="M374.96 0L374.96-51.92L369.60-52.08L369.60-56L379.44-56L379.44 0L374.96 0" fill="#0a0a0a" stroke="none" stroke-width="none" transform="translate(-305.47998046875,22.179838948567706)" style="fill: rgb(10, 10, 10);"></path>
            </g>
            <g class="path" style="filter: blur(10px); opacity: 0; transform-origin: 124.04px -2.70016px; animation: 1s linear 0.396s 1 normal forwards running blur-in-4576bc4c-bf56-4f3b-8c88-434be20b154e;">
               <path d="M441.92 7.52L441.92 7.52Q432.32 7.52 428.96 0.88L428.96 0.88L428.96 0.88Q422.24 0.64 417.48-3.12L417.48-3.12L417.48-3.12Q412.72-6.88 412.72-14.80L412.72-14.80L412.72-40.56L412.72-40.56Q412.72-48.80 417.24-53.04L417.24-53.04L417.24-53.04Q421.76-57.28 429.68-57.28L429.68-57.28L429.68-57.28Q437.60-57.28 441.96-52.80L441.96-52.80L441.96-52.80Q446.32-48.32 446.32-40.48L446.32-40.48L446.32-14.80L446.32-14.80Q446.32-7.84 442.68-4.12L442.68-4.12L442.68-4.12Q439.04-0.40 433.44 0.56L433.44 0.56L433.44 0.56Q435.68 3.28 441.92 3.20L441.92 3.20L441.92 7.52zM441.92-41.28L441.92-41.28Q441.92-47.12 438.52-50.08L438.52-50.08L438.52-50.08Q435.12-53.04 429.52-53.04L429.52-53.04L429.52-53.04Q423.92-53.04 420.56-50.08L420.56-50.08L420.56-50.08Q417.20-47.12 417.20-41.28L417.20-41.28L417.20-14.88L417.20-14.88Q417.20-9.76 420.04-6.84L420.04-6.84L420.04-6.84Q422.88-3.92 427.52-3.44L427.52-3.44L427.52-3.44Q427.20-5.36 427.20-8.08L427.20-8.08L427.20-13.92L431.68-13.92L431.68-8.16L431.68-8.16Q431.68-4.88 431.92-3.52L431.92-3.52L431.92-3.52Q436.48-4.08 439.20-6.92L439.20-6.92L439.20-6.92Q441.92-9.76 441.92-14.96L441.92-14.96L441.92-41.28" fill="#0a0a0a" stroke="none" stroke-width="none" transform="translate(-305.47998046875,22.179838948567706)" style="fill: rgb(10, 10, 10);"></path>
            </g>
            <g class="path" style="filter: blur(10px); opacity: 0; transform-origin: 163.92px 2.57984px; animation: 1s linear 0.44s 1 normal forwards running blur-in-4576bc4c-bf56-4f3b-8c88-434be20b154e;">
               <path d="M479.92 0L480.24-4.08L480.24-4.08Q478.32-1.68 475.40-0.40L475.40-0.40L475.40-0.40Q472.48 0.88 469.52 0.88L469.52 0.88L469.52 0.88Q454.48 0.88 454.48-13.76L454.48-13.76L454.48-40.08L458.96-40.08L458.96-13.20L458.96-13.20Q458.96-8.08 461.80-5.60L461.80-5.60L461.80-5.60Q464.64-3.12 469.52-3.12L469.52-3.12L469.52-3.12Q474.32-3.12 477.08-5.56L477.08-5.56L477.08-5.56Q479.84-8 479.84-13.20L479.84-13.20L479.84-40.08L484.32-40.08L484.32 0L479.92 0" fill="#0a0a0a" stroke="none" stroke-width="none" transform="translate(-305.47998046875,22.179838948567706)" style="fill: rgb(10, 10, 10);"></path>
            </g>
            <g class="path" style="filter: blur(10px); opacity: 0; transform-origin: 203.04px 2.09984px; animation: 1s linear 0.484s 1 normal forwards running blur-in-4576bc4c-bf56-4f3b-8c88-434be20b154e;">
               <path d="M523.44-14.72L523.44-14.72Q523.44-8 519.76-3.60L519.76-3.60L519.76-3.60Q516.08 0.80 508.64 0.80L508.64 0.80L508.64 0.80Q501.20 0.80 497.40-3.64L497.40-3.64L497.40-3.64Q493.60-8.08 493.60-14.72L493.60-14.72L493.60-25.28L493.60-25.28Q493.60-32.88 497.48-36.92L497.48-36.92L497.48-36.92Q501.36-40.96 508.64-40.96L508.64-40.96L508.64-40.96Q515.60-40.96 519.52-36.76L519.52-36.76L519.52-36.76Q523.44-32.56 523.44-25.28L523.44-25.28L523.44-14.72zM518.96-25.28L518.96-25.28Q518.96-31.28 516.20-34.08L516.20-34.08L516.20-34.08Q513.44-36.88 508.64-36.88L508.64-36.88L508.64-36.88Q503.68-36.88 500.88-34.08L500.88-34.08L500.88-34.08Q498.08-31.28 498.08-25.28L498.08-25.28L498.08-13.92L498.08-13.92Q498.08-9.12 500.92-6.16L500.92-6.16L500.92-6.16Q503.76-3.20 508.64-3.20L508.64-3.20L508.64-3.20Q513.60-3.20 516.28-6.12L516.28-6.12L516.28-6.12Q518.96-9.04 518.96-13.92L518.96-13.92L518.96-25.28" fill="#0a0a0a" stroke="none" stroke-width="none" transform="translate(-305.47998046875,22.179838948567706)" style="fill: rgb(10, 10, 10);"></path>
            </g>
            <g class="path" style="filter: blur(10px); opacity: 0; transform-origin: 231.16px -5.30016px; animation: 1s linear 0.528s 1 normal forwards running blur-in-4576bc4c-bf56-4f3b-8c88-434be20b154e;">
               <path d="M538.08 1.04L538.08 1.04Q533.60-0.24 531.60-3.04L531.60-3.04L531.60-3.04Q529.60-5.84 529.60-10.56L529.60-10.56L529.60-56L534.08-56L534.08-40.08L543.68-40.08L541.76-35.84L534.08-35.84L534.08-10.56L534.08-10.56Q534.08-4.16 539.36-2.40L539.36-2.40L538.08 1.04" fill="#0a0a0a" stroke="none" stroke-width="none" transform="translate(-305.47998046875,22.179838948567706)" style="fill: rgb(10, 10, 10);"></path>
            </g>
            <g class="path" style="filter: blur(10px); opacity: 0; transform-origin: 257.24px 2.25984px; animation: 1s linear 0.572s 1 normal forwards running blur-in-4576bc4c-bf56-4f3b-8c88-434be20b154e;">
               <path d="M575.12-2.80L575.12-2.80Q572.24-0.96 568.56 0L568.56 0L568.56 0Q564.88 0.96 561.20 0.96L561.20 0.96L561.20 0.96Q555.28 0.96 551.80-1.96L551.80-1.96L551.80-1.96Q548.32-4.88 548.32-10.72L548.32-10.72L548.32-27.12L548.32-27.12Q548.32-33.60 552.36-37.20L552.36-37.20L552.36-37.20Q556.40-40.80 563.04-40.80L563.04-40.80L563.04-40.80Q569.68-40.80 573.40-37.24L573.40-37.24L573.40-37.24Q577.12-33.68 577.12-27.36L577.12-27.36L577.12-16.96L552.80-15.60L552.80-10.72L552.80-10.72Q552.80-6.88 555.28-4.96L555.28-4.96L555.28-4.96Q557.76-3.04 561.76-3.04L561.76-3.04L561.76-3.04Q567.36-3.04 573.36-6.24L573.36-6.24L575.12-2.80zM572.64-27.92L572.64-27.92Q572.64-32.88 569.52-34.92L569.52-34.92L569.52-34.92Q566.40-36.96 562.96-36.96L562.96-36.96L562.96-36.96Q558.56-36.96 555.68-34.56L555.68-34.56L555.68-34.56Q552.80-32.16 552.80-27.04L552.80-27.04L552.80-20L572.64-20.96L572.64-27.92" fill="#0a0a0a" stroke="none" stroke-width="none" transform="translate(-305.47998046875,22.179838948567706)" style="fill: rgb(10, 10, 10);"></path>
            </g>
            <g class="path" style="filter: blur(10px); opacity: 0; transform-origin: 292.04px 2.25984px; animation: 1s linear 0.616s 1 normal forwards running blur-in-4576bc4c-bf56-4f3b-8c88-434be20b154e;">
               <path d="M587.36-10.16L587.36-10.16Q587.84-6.56 590.96-4.76L590.96-4.76L590.96-4.76Q594.08-2.96 597.92-2.96L597.92-2.96L597.92-2.96Q601.52-2.96 604.48-4.60L604.48-4.60L604.48-4.60Q607.44-6.24 607.44-9.92L607.44-9.92L607.44-9.92Q607.44-12.32 606.04-13.88L606.04-13.88L606.04-13.88Q604.64-15.44 602.56-16.40L602.56-16.40L602.56-16.40Q600.48-17.36 596.96-18.48L596.96-18.48L596.96-18.48Q593.04-19.76 590.56-20.88L590.56-20.88L590.56-20.88Q588.08-22 586.24-24.04L586.24-24.04L586.24-24.04Q584.40-26.08 584.08-29.20L584.08-29.20L584.00-30.16L584.00-30.16Q584.00-32.80 585.48-35.32L585.48-35.32L585.48-35.32Q586.96-37.84 590.04-39.44L590.04-39.44L590.04-39.44Q593.12-41.04 597.76-41.04L597.76-41.04L597.76-41.04Q600.32-41.04 602.28-40.52L602.28-40.52L602.28-40.52Q604.24-40 605.36-39.44L605.36-39.44L605.36-39.44Q606.48-38.88 606.72-38.72L606.72-38.72L605.20-35.04L605.20-35.04Q604.96-35.20 604.04-35.68L604.04-35.68L604.04-35.68Q603.12-36.16 601.44-36.64L601.44-36.64L601.44-36.64Q599.76-37.12 597.76-37.12L597.76-37.12L597.76-37.12Q593.92-37.12 591.20-35.32L591.20-35.32L591.20-35.32Q588.48-33.52 588.48-30.32L588.48-30.32L588.48-30.32Q588.48-27.28 590.96-25.68L590.96-25.68L590.96-25.68Q593.44-24.08 598.56-22.48L598.56-22.48L598.56-22.48Q602.88-21.04 605.52-19.76L605.52-19.76L605.52-19.76Q608.16-18.48 610.04-16.12L610.04-16.12L610.04-16.12Q611.92-13.76 611.92-10L611.92-10L611.92-10Q611.92-5.20 608.36-2L608.36-2L608.36-2Q604.80 1.20 597.92 1.20L597.92 1.20L597.92 1.20Q593.36 1.20 590.04-0.36L590.04-0.36L590.04-0.36Q586.72-1.92 585.00-4.48L585.00-4.48L585.00-4.48Q583.28-7.04 583.12-10.16L583.12-10.16L587.36-10.16" fill="#0a0a0a" stroke="none" stroke-width="none" transform="translate(-305.47998046875,22.179838948567706)" style="fill: rgb(10, 10, 10);"></path>
            </g>
         </g>
      </g>
   </g>
</svg>
